name ./resultDataOpenSim/trcMotMarkerGrf/sub10/grf-01-02.mot
datacolumns 19
datarows 30
range 0.45200000 0.56800000
endheader

                time	     ground_force_vx	     ground_force_vy	     ground_force_vz	     ground_force_px	     ground_force_py	     ground_force_pz	   l_ground_force_vx	   l_ground_force_vy	   l_ground_force_vz	   l_ground_force_px	   l_ground_force_py	   l_ground_force_pz	     ground_torque_x	     ground_torque_y	     ground_torque_z	   l_ground_torque_x	   l_ground_torque_y	   l_ground_torque_z	
          0.45200000	         15.75089601	        380.09583058	         -8.52587503	         -0.79291958	          0.00000000	          0.06764715	          0.00000000	          0.00000000	          0.00000000	          0.00000000	          0.00000000	          0.00000000	          0.00000000	          1.86996355	          0.00000000	          0.00000000	          0.00000000	          0.00000000	
          0.45600000	         17.15281636	        382.16595036	         -8.39418884	         -0.79127854	          0.00000000	          0.06745971	          0.00000000	          0.00000000	          0.00000000	          0.00000000	          0.00000000	          0.00000000	          0.00000000	          2.09146181	          0.00000000	          0.00000000	          0.00000000	          0.00000000	
          0.46000000	         18.45975349	        385.19605902	         -8.75472362	         -0.78965125	          0.00000000	          0.06727868	          0.00000000	          0.00000000	          0.00000000	          0.00000000	          0.00000000	          0.00000000	          0.00000000	          2.29706045	          0.00000000	          0.00000000	          0.00000000	          0.00000000	
          0.46400000	         19.77781564	        389.19682909	         -9.42357393	         -0.78805426	          0.00000000	          0.06710476	          0.00000000	          0.00000000	          0.00000000	          0.00000000	          0.00000000	          0.00000000	          0.00000000	          2.49295245	          0.00000000	          0.00000000	          0.00000000	          0.00000000	
          0.46800000	         21.21823869	        394.17749710	        -10.17711418	         -0.78651350	          0.00000000	          0.06693681	          0.00000000	          0.00000000	          0.00000000	          0.00000000	          0.00000000	          0.00000000	          0.00000000	          2.68955584	          0.00000000	          0.00000000	          0.00000000	          0.00000000	
          0.47200000	         22.87728944	        400.14081785	        -10.80935425	         -0.78506312	          0.00000000	          0.06677403	          0.00000000	          0.00000000	          0.00000000	          0.00000000	          0.00000000	          0.00000000	          0.00000000	          2.89776031	          0.00000000	          0.00000000	          0.00000000	          0.00000000	
          0.47600000	         24.81934492	        407.06835602	        -11.17999774	         -0.78372137	          0.00000000	          0.06662152	          0.00000000	          0.00000000	          0.00000000	          0.00000000	          0.00000000	          0.00000000	          0.00000000	          3.12460817	          0.00000000	          0.00000000	          0.00000000	          0.00000000	
          0.48000000	         27.06713104	        414.92241947	        -11.24641598	         -0.78247212	          0.00000000	          0.06648654	          0.00000000	          0.00000000	          0.00000000	          0.00000000	          0.00000000	          0.00000000	          0.00000000	          3.36975705	          0.00000000	          0.00000000	          0.00000000	          0.00000000	
          0.48400000	         29.60325596	        423.66438194	        -11.07320085	         -0.78127518	          0.00000000	          0.06637208	          0.00000000	          0.00000000	          0.00000000	          0.00000000	          0.00000000	          0.00000000	          0.00000000	          3.62394685	          0.00000000	          0.00000000	          0.00000000	          0.00000000	
          0.48800000	         32.38481832	        433.27389024	        -10.81763598	         -0.78009258	          0.00000000	          0.06627787	          0.00000000	          0.00000000	          0.00000000	          0.00000000	          0.00000000	          0.00000000	          0.00000000	          3.86996994	          0.00000000	          0.00000000	          0.00000000	          0.00000000	
          0.49200000	         35.36654785	        443.76044177	        -10.69687865	         -0.77890027	          0.00000000	          0.06620150	          0.00000000	          0.00000000	          0.00000000	          0.00000000	          0.00000000	          0.00000000	          0.00000000	          4.08574444	          0.00000000	          0.00000000	          0.00000000	          0.00000000	
          0.49600000	         38.52184616	        455.15517686	        -10.94311824	         -0.77768705	          0.00000000	          0.06613999	          0.00000000	          0.00000000	          0.00000000	          0.00000000	          0.00000000	          0.00000000	          0.00000000	          4.24851330	          0.00000000	          0.00000000	          0.00000000	          0.00000000	
          0.50000000	         41.85310952	        467.48316755	        -11.75176686	         -0.77645051	          0.00000000	          0.06609793	          0.00000000	          0.00000000	          0.00000000	          0.00000000	          0.00000000	          0.00000000	          0.00000000	          4.33915266	          0.00000000	          0.00000000	          0.00000000	          0.00000000	
          0.50400000	         45.39049875	        480.74664355	        -13.23303514	         -0.77519353	          0.00000000	          0.06608115	          0.00000000	          0.00000000	          0.00000000	          0.00000000	          0.00000000	          0.00000000	          0.00000000	          4.34585917	          0.00000000	          0.00000000	          0.00000000	          0.00000000	
          0.50800000	         49.18271533	        494.93224149	        -15.37951653	         -0.77393758	          0.00000000	          0.06608452	          0.00000000	          0.00000000	          0.00000000	          0.00000000	          0.00000000	          0.00000000	          0.00000000	          4.26671179	          0.00000000	          0.00000000	          0.00000000	          0.00000000	
          0.51200000	         53.28023897	        510.02584519	        -18.05832689	         -0.77270773	          0.00000000	          0.06609740	          0.00000000	          0.00000000	          0.00000000	          0.00000000	          0.00000000	          0.00000000	          0.00000000	          4.11067695	          0.00000000	          0.00000000	          0.00000000	          0.00000000	
          0.51600000	         57.71338244	        526.02151325	        -21.03312093	         -0.77151103	          0.00000000	          0.06610391	          0.00000000	          0.00000000	          0.00000000	          0.00000000	          0.00000000	          0.00000000	          0.00000000	          3.89672452	          0.00000000	          0.00000000	          0.00000000	          0.00000000	
          0.52000000	         62.47631993	        542.91477830	        -24.01224026	         -0.77033370	          0.00000000	          0.06607756	          0.00000000	          0.00000000	          0.00000000	          0.00000000	          0.00000000	          0.00000000	          0.00000000	          3.65098914	          0.00000000	          0.00000000	          0.00000000	          0.00000000	
          0.52400000	         67.52620007	        560.68896656	        -26.70795066	         -0.76916527	          0.00000000	          0.06598988	          0.00000000	          0.00000000	          0.00000000	          0.00000000	          0.00000000	          0.00000000	          0.00000000	          3.40238885	          0.00000000	          0.00000000	          0.00000000	          0.00000000	
          0.52800000	         72.79658620	        579.30902142	        -28.89071932	         -0.76800870	          0.00000000	          0.06581877	          0.00000000	          0.00000000	          0.00000000	          0.00000000	          0.00000000	          0.00000000	          0.00000000	          3.17764153	          0.00000000	          0.00000000	          0.00000000	          0.00000000	
          0.53200000	         78.21835551	        598.71297499	        -30.42557448	         -0.76688216	          0.00000000	          0.06555266	          0.00000000	          0.00000000	          0.00000000	          0.00000000	          0.00000000	          0.00000000	          0.00000000	          2.99688421	          0.00000000	          0.00000000	          0.00000000	          0.00000000	
          0.53600000	         83.73977995	        618.80064364	        -31.28241345	         -0.76580507	          0.00000000	          0.06519249	          0.00000000	          0.00000000	          0.00000000	          0.00000000	          0.00000000	          0.00000000	          0.00000000	          2.87092854	          0.00000000	          0.00000000	          0.00000000	          0.00000000	
          0.54000000	         89.34088667	        639.43358122	        -31.52249722	         -0.76478998	          0.00000000	          0.06474833	          0.00000000	          0.00000000	          0.00000000	          0.00000000	          0.00000000	          0.00000000	          0.00000000	          2.80065506	          0.00000000	          0.00000000	          0.00000000	          0.00000000	
          0.54400000	         95.04068109	        660.44426486	        -31.27285352	         -0.76384286	          0.00000000	          0.06423170	          0.00000000	          0.00000000	          0.00000000	          0.00000000	          0.00000000	          0.00000000	          0.00000000	          2.77841637	          0.00000000	          0.00000000	          0.00000000	          0.00000000	
          0.54800000	        100.89625962	        681.65094923	        -30.69883206	         -0.76296927	          0.00000000	          0.06365138	          0.00000000	          0.00000000	          0.00000000	          0.00000000	          0.00000000	          0.00000000	          0.00000000	          2.79088138	          0.00000000	          0.00000000	          0.00000000	          0.00000000	
          0.55200000	        106.99164492	        702.87993981	        -29.97338457	         -0.76217412	          0.00000000	          0.06301910	          0.00000000	          0.00000000	          0.00000000	          0.00000000	          0.00000000	          0.00000000	          0.00000000	          2.82261815	          0.00000000	          0.00000000	          0.00000000	          0.00000000	
          0.55600000	        113.41501979	        723.98861214	        -29.23861649	         -0.76145410	          0.00000000	          0.06235083	          0.00000000	          0.00000000	          0.00000000	          0.00000000	          0.00000000	          0.00000000	          0.00000000	          2.85974571	          0.00000000	          0.00000000	          0.00000000	          0.00000000	
          0.56000000	        120.22841581	        744.87849096	        -28.56930812	         -0.76079464	          0.00000000	          0.06165847	          0.00000000	          0.00000000	          0.00000000	          0.00000000	          0.00000000	          0.00000000	          0.00000000	          2.89301251	          0.00000000	          0.00000000	          0.00000000	          0.00000000	
          0.56400000	        127.43897826	        765.48507900	        -27.95643249	         -0.76017742	          0.00000000	          0.06094446	          0.00000000	          0.00000000	          0.00000000	          0.00000000	          0.00000000	          0.00000000	          0.00000000	          2.91967921	          0.00000000	          0.00000000	          0.00000000	          0.00000000	
          0.56800000	        134.98248670	        785.73877651	        -27.31544689	         -0.75958484	          0.00000000	          0.06020482	          0.00000000	          0.00000000	          0.00000000	          0.00000000	          0.00000000	          0.00000000	          0.00000000	          2.94372998	          0.00000000	          0.00000000	          0.00000000	          0.00000000	
